<?xml version="1.0" encoding="utf-8"?>
<!-- Generator: Adobe Illustrator 26.0.3, SVG Export Plug-In . SVG Version: 6.00 Build 0)  -->
<svg version="1.0" id="Layer_1" xmlns="http://www.w3.org/2000/svg" xmlns:xlink="http://www.w3.org/1999/xlink" x="0px" y="0px"
	 viewBox="0 0 150.4 102.6" style="enable-background:new 0 0 150.4 102.6;" xml:space="preserve">
<style type="text/css">
	.st0{fill:#F4A427;}
	.st1{fill:#FFFFFF;}
	.st2{fill:#F79422;}
	.st3{fill:none;stroke:#221F1F;stroke-linejoin:round;}
	.st4{fill:#5A595C;}
	.st5{fill:#929497;}
	.st6{fill:none;stroke:#221F1F;stroke-linecap:round;stroke-linejoin:round;}
	.st7{fill:none;stroke:#221F1F;stroke-miterlimit:10;}
	.st8{fill:none;stroke:#171717;stroke-linecap:round;stroke-linejoin:round;}
	.st9{fill:#171717;}
	.st10{fill:#221F1F;}
</style>
<g id="Layer_2_00000096758436641758334450000017841725478599035553_">
	<g id="Layer_4">
		<path class="st0" d="M103.9,69.3c-0.8,9.5-12,17.5-28.8,17.1l0,0c-15.8-0.4-26.9-7-27.7-16.5c-0.1-1.2,0-2.4,0.1-3.7
			c0.5-3.7,1.8-7.2,3.7-10.4l1.2,0.5c3.1-1.2,6.3-2.1,9.6-2.7c4.3-0.6,8.7-0.7,13-0.4l0,0c4.3-0.3,8.7-0.2,13,0.4
			c3.3,0.6,6.5,1.5,9.6,2.7l1.2-0.5l0.8-0.4c1.9,3.2,3.2,6.7,3.9,10.4c0.2,1.1,0.3,2.3,0.2,3.4"/>
		<path class="st1" d="M103.9,69.3c-0.8,9.4-11.9,17.1-28.8,17l0,0c-15.8-0.4-26.9-7-27.7-16.5c-0.1-1.2,0-2.4,0.1-3.7
			c1.7-0.4,3.4-0.4,5.1-0.1c3.2,0.5,5,2.5,7.3,3.5c1.3,0.6,2.6-0.4,3.8-1.5c3.2-3.1,7.5-4.9,11.9-5c4.5-0.1,8.2,1.7,12.1,5.3
			c0.8,0.8,1.9,1.3,3,1.2c1-0.3,2-0.8,2.8-1.5c3-2,6.6-2.8,10.1-2.3C103.9,67,104,68.1,103.9,69.3"/>
		<path class="st2" d="M57.4,45.9c-1.1,1.1-2.5,1.9-4,2.2l-0.6,0.1c-0.6,0.2-1.2,0.3-1.9,0.3c-0.1,0-0.3,0-0.4,0
			c-0.3-0.1-0.7-0.2-1-0.3c-1.1-0.5-2.1-1.1-3-1.9c-1.8-1.5-3.5-3.2-4.8-5.2c-5.5-8-3.8-18.8,3.8-24.8C46,16,46.6,16,47,16.5
			c0.2,0.3,0.3,0.6,0.2,0.9c-0.7,3.2-1.3,8.2,1.7,12.5c2.6,3.6,8,7.1,11.3,7.1C60.9,41,59.8,43.7,57.4,45.9"/>
		<path class="st3" d="M57.4,45.9c-1.1,1.1-2.5,1.9-4,2.2l-0.6,0.1c-0.6,0.2-1.2,0.3-1.9,0.3c-0.1,0-0.3,0-0.4,0
			c-0.3-0.1-0.7-0.2-1-0.3c-1.1-0.5-2.1-1.1-3-1.9c-1.8-1.5-3.5-3.2-4.8-5.2c-5.5-8-3.8-18.8,3.8-24.8C46,16,46.6,16,47,16.5
			c0.2,0.3,0.3,0.6,0.2,0.9c-0.7,3.2-1.3,8.2,1.7,12.5c2.6,3.6,8,7.1,11.3,7.1C60.9,41,59.8,43.7,57.4,45.9z"/>
		<path class="st4" d="M71.8,32.1l-1.3,12.8h-0.1c-2,0.3-4.7,0.7-8.4,1.3c-3.4,0.5-8,2.9-10.7,4.5L51,48.6c0.6-0.1,1.3-0.2,1.9-0.3
			l0.6-0.1c1.5-0.3,2.9-1.1,4-2.2c2.3-2.3,3.5-4.9,2.7-9l0.4,0.1c1.2-1.3,2.6-2.3,4.2-3.1C66.9,32.8,69.3,32.2,71.8,32.1"/>
		<path class="st3" d="M71.8,32.1l-1.3,12.8h-0.1c-2,0.3-4.7,0.7-8.4,1.3c-3.4,0.5-8,2.9-10.7,4.5L51,48.6c0.6-0.1,1.3-0.2,1.9-0.3
			l0.6-0.1c1.5-0.3,2.9-1.1,4-2.2c2.3-2.3,3.5-4.9,2.7-9l0.4,0.1c1.2-1.3,2.6-2.3,4.2-3.1C66.9,32.8,69.3,32.2,71.8,32.1z"/>
		<path class="st5" d="M101,55.1l-0.8,0.4l0,0l-0.8,0.4l-1.2,0.5c-3.1-1.2-6.3-2.1-9.6-2.7c-4.3-0.8-8.6-1.2-13-1.2l0,0
			c-4.4,0-8.7,0.3-13,1.2c-3.3,0.6-6.5,1.5-9.6,2.7c-0.4-0.2-0.8-0.4-1.2-0.5l-1.7-0.8c0.1-1.4,0-2.2,0-3.6c0.3-0.2,0.8-0.5,1.3-0.8
			l0.1-0.1c2.6-1.6,7.2-3.9,10.6-4.5c3.7-0.6,6.3-1,8.4-1.3c1.3-0.1,2.7-0.1,4.1-0.1c2.1,0,4,0,5.9,0.1c2,0.3,4.7,0.7,8.5,1.3
			c3.5,0.5,8.1,2.9,10.8,4.5h0.1c0.5,0.3,0.9,0.5,1.2,0.8C101,52.9,100.9,53.7,101,55.1"/>
		<path class="st6" d="M101,55.1l-0.8,0.4l0,0l-0.8,0.4l-1.2,0.5c-3.1-1.2-6.3-2.1-9.6-2.7c-4.3-0.7-8.6-1.1-13-1.1l0,0
			c-4.4,0-8.7,0.3-13,1.1c-3.3,0.6-6.5,1.5-9.6,2.7c-0.4-0.2-0.8-0.4-1.2-0.5l-1.7-0.8c0.1-1.4,0-2.2,0-3.6c0.3-0.2,0.8-0.5,1.3-0.8
			l0.1-0.1c2.6-1.6,7.2-3.9,10.6-4.5c3.7-0.6,6.3-1,8.4-1.3c1.3-0.1,2.7-0.1,4.1-0.1c2.1,0,4,0,5.9,0.1c2,0.3,4.7,0.7,8.5,1.3
			c3.5,0.5,8.1,2.9,10.8,4.5h0.1c0.5,0.3,0.9,0.5,1.2,0.8C101,52.9,100.9,53.7,101,55.1z"/>
		<path class="st5" d="M80.4,44.9c-1.8-0.1-3.8-0.2-5.9-0.1c-1.4,0-2.8,0.1-4.1,0.1h0.1l1.3-12.8l0.3-2.6c1-0.6,2.2-0.9,3.3-0.9h0.2
			c1.2,0,2.3,0.3,3.3,0.9l0.3,2.6v0.1L80.4,44.9z"/>
		<path class="st6" d="M80.4,44.9c-1.8-0.1-3.8-0.2-5.9-0.1c-1.4,0-2.8,0.1-4.1,0.1h0.1l1.3-12.8l0.3-2.6c1-0.6,2.2-0.9,3.3-0.9h0.2
			c1.2,0,2.3,0.3,3.3,0.9l0.3,2.6v0.1L80.4,44.9z"/>
		<line class="st6" x1="100.2" y1="55.5" x2="100.2" y2="55.5"/>
		<path class="st6" d="M103.9,69.4c-0.8,9.5-12.9,17.1-28.8,17.1l0,0c-15.8-0.4-26.9-7-27.6-16.5c-0.1-1.2,0-2.4,0.1-3.7
			c0.5-3.7,1.8-7.2,3.7-10.4l1.2,0.5c3.1-1.2,6.3-2.1,9.6-2.7c4.3-0.8,8.6-1.1,13-1.2l0,0c4.4,0,8.7,0.4,13,1.2
			c3.3,0.6,6.5,1.5,9.6,2.7l1.3-0.5l0.8-0.4c1.9,3.2,3.2,6.7,3.9,10.4C104,67.1,104,68.3,103.9,69.4z"/>
		<path class="st2" d="M108.8,41.1c-1.4,1.9-3,3.7-4.9,5.2c-0.9,0.8-1.9,1.4-3,1.9l-0.5,0.2l-0.3,0.1c-0.7,0.2-1.1,0-2.4-0.2
			l-0.6-0.1c-1.5-0.3-2.9-1.1-4-2.2c-2.3-2.3-3.5-4.9-2.7-9c3.2,0.1,8.7-3.4,11.3-7.1c2.9-4.3,2.3-9.3,1.6-12.5
			c-0.1-0.6,0.2-1.1,0.8-1.3c0.3-0.1,0.7,0,0.9,0.2C112.6,22.3,114.3,33.2,108.8,41.1"/>
		<path class="st3" d="M108.8,41.1c-1.4,1.9-3,3.7-4.9,5.2c-0.9,0.8-1.9,1.4-3,1.9l-0.5,0.2l-0.3,0.1c-0.7,0.2-1.1,0-2.4-0.2
			l-0.6-0.1c-1.5-0.3-2.9-1.1-4-2.2c-2.3-2.3-3.5-4.9-2.7-9c3.2,0.1,8.7-3.4,11.3-7.1c2.9-4.3,2.3-9.3,1.6-12.5
			c-0.1-0.6,0.2-1.1,0.8-1.3c0.3-0.1,0.7,0,0.9,0.2C112.6,22.3,114.3,33.2,108.8,41.1z"/>
		<path class="st4" d="M100.1,48.5l-0.4,2.2c-2.7-1.6-7.3-4-10.8-4.5c-3.8-0.6-6.4-1-8.5-1.3l-1.3-12.8c2.3,0.1,4.6,0.8,6.7,1.9
			c1.6,0.8,3,1.9,4.2,3.1l0.4-0.1c-0.8,4,0.4,6.7,2.7,9c1.1,1.1,2.5,1.9,4,2.2c0.1,0,0.5,0.2,0.6,0.2
			C98.5,48.7,99.3,48.7,100.1,48.5"/>
		<path class="st3" d="M100.1,48.5l-0.4,2.2c-2.7-1.6-7.3-4-10.8-4.5c-3.8-0.6-6.4-1-8.5-1.3l-1.3-12.8c2.3,0.1,4.6,0.8,6.7,1.9
			c1.6,0.8,3,1.9,4.2,3.1l0.4-0.1c-0.8,4,0.4,6.7,2.7,9c1.1,1.1,2.5,1.9,4,2.2l0.6,0.1C99,48.5,99.4,48.7,100.1,48.5z"/>
		<path class="st3" d="M79.1,32.1h-0.4"/>
		<path class="st2" d="M100.2,48c0.7,0.8,0.5,2-0.3,2.7c-0.1,0.1-0.1,0.1-0.2,0.2"/>
		<path class="st7" d="M100.2,48c0.7,0.8,0.5,2-0.3,2.7c-0.1,0.1-0.1,0.1-0.2,0.2"/>
		<path class="st2" d="M50.9,48c-0.7,0.8-0.5,2,0.3,2.7c0.1,0.1,0.1,0.1,0.2,0.2"/>
		<path class="st7" d="M50.9,48c-0.7,0.8-0.5,2,0.3,2.7c0.1,0.1,0.1,0.1,0.2,0.2"/>
		<path class="st8" d="M71.8,73.2c0.7,0.2,1.5,0.1,2.2-0.3c1.1-0.4,1.8-1.5,1.7-2.7c-0.1,1.2,0.6,2.3,1.7,2.7
			c0.7,0.3,1.4,0.4,2.1,0.3"/>
		<path class="st9" d="M79.6,66.8c0,1.2-1.8,2.8-4,2.8c-2.2,0-4-1.6-4-2.8c0-1.2,1.8-1.6,4-1.6C77.8,65.2,79.6,65.7,79.6,66.8"/>
		<path class="st1" d="M77.2,66.4c0,0.3-0.8,0.7-1.7,0.7s-1.7-0.4-1.7-0.6s0.8-0.2,1.7-0.2S77.2,66.1,77.2,66.4"/>
		<path class="st8" d="M69.3,70.2c-0.1,1.4,0.8,2.6,2.2,2.9h0.3"/>
		<path class="st8" d="M75.7,68.8c0,0.5,0,0.9,0,1.4"/>
		<path class="st8" d="M79.6,73.2h0.3c1.4-0.3,2.4-1.5,2.2-2.9"/>
		<path class="st3" d="M105,16.3c7.6,6,9.2,16.8,3.7,24.7"/>
		<path class="st3" d="M57.4,45.9c-1.1,1.1-2.5,1.9-4,2.2l-0.6,0.1c-0.6,0.2-1.2,0.3-1.9,0.3c-0.1,0-0.3,0-0.4,0
			c-0.3-0.1-0.7-0.2-1-0.3c-1.1-0.5-2.1-1.1-3-1.9c-1.8-1.5-3.5-3.2-4.8-5.2c-5.5-8-3.8-18.8,3.8-24.8C46,16,46.6,16,47,16.5
			c0.2,0.3,0.3,0.6,0.2,0.9c-0.7,3.2-1.3,8.2,1.7,12.5c2.6,3.6,8,7.1,11.3,7.1C60.9,41,59.8,43.7,57.4,45.9z"/>
		<path class="st10" d="M68.3,60.3c0,2.2-1.3,3.9-2.9,3.9c-1.6,0-2.9-1.8-2.9-3.9c0-1.9,1-3.5,2.3-3.9l3.2,2.4
			C68.2,59.3,68.3,59.8,68.3,60.3z"/>
		<path class="st1" d="M67.2,59.8c0,0.8-0.5,1.4-1,1.4s-1-0.6-1-1.4s0.5-1.4,1-1.4S67.2,59,67.2,59.8"/>
		<path class="st10" d="M64.8,63.3c-1.1,0.9-2.1,1.9-3,3c-0.4,0.5-0.8,1.1-1.1,1.8c-0.3,0.6-0.5,1.3-0.6,2c-0.1,0.3-0.1,0.7-0.1,1
			v0.5v0.5c0,0.7,0,1.4,0,2.2c0.1,0.7,0.2,1.5,0.3,2.2c0.1,0.4,0.1,0.7,0.2,1.1c0.1,0.3,0.2,0.7,0.4,1c-0.2-0.3-0.3-0.7-0.5-1
			c-0.1-0.3-0.3-0.7-0.4-1c-0.2-0.7-0.4-1.4-0.6-2.2c-0.1-0.7-0.2-1.5-0.3-2.2v-0.5v-0.6c0-0.4,0-0.8,0-1.1c0.1-0.8,0.2-1.6,0.5-2.3
			c0.3-0.7,0.6-1.4,1-2.1c0.9-1.3,1.8-2.5,2.9-3.5c0.4-0.3,0.9-0.3,1.3,0C65.1,62.3,65.2,62.9,64.8,63.3L64.8,63.3L64.8,63.3z"/>
		<path class="st10" d="M64.1,63c-0.1,0-0.1,0-0.2,0h-0.1h-0.2l-0.5-0.1c-0.3-0.1-0.6-0.1-0.9-0.1c-0.6,0-1.3,0-1.9,0.2
			c-0.3,0.1-0.6,0.2-0.9,0.3c-0.9,0.4-1.7,1.1-2.2,1.9c0.3-0.7,0.6-1.3,1.1-1.8c0.2-0.3,0.5-0.5,0.8-0.7s0.6-0.4,0.9-0.6
			c0.6-0.4,1.3-0.6,2.1-0.8c0.4-0.1,0.7-0.1,1.1-0.1c0.2,0,0.4,0,0.6,0h0.4c0,0,0.1,0,0,0c0.5,0,0.9,0.4,1,0.9S64.7,63,64.1,63
			C64.2,63,64.1,63,64.1,63"/>
		<path class="st10" d="M88.8,60.3c0,2.2-1.3,3.9-2.8,3.9s-2.9-1.8-2.9-3.9c0-0.5,0.1-1,0.2-1.5l3.2-2.4
			C87.8,56.8,88.8,58.4,88.8,60.3z"/>
		<path class="st1" d="M84.1,59.8c0,0.8,0.5,1.4,1,1.4s1-0.6,1-1.4s-0.5-1.4-1-1.4S84.1,59,84.1,59.8"/>
		<path class="st10" d="M87.8,61.9c1.1,1.1,2,2.2,2.8,3.5c0.4,0.6,0.8,1.3,1.1,2c0.3,0.7,0.5,1.5,0.6,2.2c0.1,0.8,0.1,1.5,0,2.3
			c-0.1,0.7-0.2,1.5-0.3,2.2s-0.3,1.4-0.5,2.1c-0.1,0.3-0.2,0.7-0.4,1c-0.1,0.3-0.3,0.7-0.5,1c0.1-0.3,0.3-0.7,0.4-1s0.2-0.7,0.3-1
			c0.1-0.7,0.3-1.4,0.3-2.1c0.1-0.7,0.1-1.4,0.1-2.2c0-0.7-0.1-1.4-0.2-2.1c-0.2-0.7-0.4-1.3-0.7-1.9c-0.3-0.6-0.7-1.2-1.2-1.7
			c-0.9-1.1-1.9-2.1-3-3l0,0c-0.4-0.4-0.4-0.9,0-1.3C86.9,61.6,87.4,61.5,87.8,61.9L87.8,61.9"/>
		<path class="st10" d="M87.2,61.2L87.2,61.2h0.5c0.2,0,0.4,0,0.6,0c0.4,0,0.8,0,1.2,0.1c0.8,0.1,1.5,0.3,2.2,0.6
			c0.7,0.3,1.3,0.8,1.9,1.3c0.5,0.5,0.9,1.2,1.2,1.8c-0.4-0.6-0.9-1.1-1.5-1.5s-1.2-0.7-1.9-0.8c-0.7-0.1-1.4-0.1-2.1-0.1
			c-0.3,0-0.7,0.1-1,0.1l-0.5,0.1h-0.2h-0.1h-0.1h-0.1c-0.5,0.1-1-0.3-1-0.8c-0.1-0.5,0.3-1,0.8-1c0.1,0,0.1,0,0.2,0"/>
	</g>
</g>
</svg>
