<?xml version="1.0" encoding="UTF-8"?>
<svg id="logosandtypes_com" data-name="logosandtypes com" xmlns="http://www.w3.org/2000/svg" viewBox="0 0 150 150">
  <defs>
    <style>
      .cls-1 {
        fill: #072723;
      }

      .cls-2 {
        fill: none;
      }
    </style>
  </defs>
  <path id="Layer_3" data-name="Layer 3" class="cls-2" d="M0,0H150V150H0V0Z"/>
  <path class="cls-1" d="M146.26,76.01c.13,11.65-2.31,22.78-7.1,33.41-6.84,15.14-23.23,27.52-38.2,14.34-12.21-10.74-14.47-32.55-32.76-35.74-24.2-2.93-24.78,25.13-40.6,28.3-17.62,3.58-23.47-26.06-23.21-39.52,.26-13.46,3.84-32.38,19.15-32.38,17.62,0,18.81,26.68,41.18,25.24,22.15-1.51,22.54-29.27,37.01-41.16,12.49-10.27,27.18-2.74,34.53,9.62,6.82,11.43,9.81,24.85,9.97,37.88h.02Z"/>
</svg>